<?xml version="1.0" encoding="UTF-8" standalone="no"?>
<!-- Generator: Adobe Illustrator 16.0.1, SVG Export Plug-In . SVG Version: 6.00 Build 0)  -->

<svg
   xmlns:dc="http://purl.org/dc/elements/1.1/"
   xmlns:cc="http://creativecommons.org/ns#"
   xmlns:rdf="http://www.w3.org/1999/02/22-rdf-syntax-ns#"
   xmlns:svg="http://www.w3.org/2000/svg"
   xmlns="http://www.w3.org/2000/svg"
   xmlns:sodipodi="http://sodipodi.sourceforge.net/DTD/sodipodi-0.dtd"
   xmlns:inkscape="http://www.inkscape.org/namespaces/inkscape"
   version="1.1"
   x="0px"
   y="0px"
   width="40"
   height="40"
   viewBox="0 0 40 40"
   enable-background="new 0 0 640 480"
   xml:space="preserve"
   id="svg2"
   inkscape:version="0.91 r13725"
   sodipodi:docname="logo-w.svg"><metadata
     id="metadata26"><rdf:RDF><cc:Work
         rdf:about=""><dc:format>image/svg+xml</dc:format><dc:type
           rdf:resource="http://purl.org/dc/dcmitype/StillImage" /><dc:title></dc:title></cc:Work></rdf:RDF></metadata><defs
     id="defs24" /><sodipodi:namedview
     pagecolor="#ffffff"
     bordercolor="#666666"
     borderopacity="1"
     objecttolerance="10"
     gridtolerance="10"
     guidetolerance="10"
     inkscape:pageopacity="0"
     inkscape:pageshadow="2"
     inkscape:window-width="2520"
     inkscape:window-height="1354"
     id="namedview22"
     showgrid="false"
     inkscape:zoom="15.733333"
     inkscape:cx="29.48223"
     inkscape:cy="26.681348"
     inkscape:window-x="0"
     inkscape:window-y="55"
     inkscape:window-maximized="0"
     inkscape:current-layer="svg2" /><path
     inkscape:connector-curvature="0"
     id="path5"
     d="m 37.644906,2.49182 c 0,0 -17.73467,0.005 -17.92907,0.005 -9.8967802,0 -17.9190602,8.003431 -17.9190602,17.900211 0,9.89736 8.02228,17.91964 17.9190602,17.91964 9.82726,0 17.80241,-7.91153 17.91376,-17.71169 l 0.0147,0 0,-18.112871 z"
     style="fill:#ffffff" /><g
     id="Ebene_1"
     transform="matrix(0.58909388,0,0,0.58909388,-143.63223,-120.92806)"
     style="fill:#000000"><path
       d="m 301.365,217.393 c -1.486,-0.905 -8.498,-1.889 -10.315,0.343 -0.903,1.108 -3.305,4.519 -3.305,4.519 0,0 -0.635,1.103 -1.607,0.962 -0.594,-0.087 -1.078,0.475 -0.862,0.948 0.14,0.307 0.207,0.516 0.164,0.653 -0.893,0.419 -1.688,0.278 -2.324,0.215 -0.644,-0.147 -2.058,-0.256 -2.106,-0.256 -1.361,0 -3.726,0.568 -5.872,-1.326 -2.147,-1.895 -7.324,-2.178 -8.335,1.863 -0.555,2.219 0.841,4.654 0.568,6.566 -0.474,3.318 -2.604,4.796 -4.735,5.684 -1.516,0.632 0.949,0.437 2.367,-0.379 1.562,-0.898 2.449,-1.905 3.076,-3.212 0.666,-1.387 1.037,-3.243 0.422,-7.056 -0.544,-3.375 3.94,-3.417 5.792,-1.958 0.839,0.661 1.583,1.167 2.75,1.25 -1.417,0.875 -2.458,2.083 -3.5,4.375 -2.559,5.63 -5.862,7.772 -8.062,8.659 -2.604,1.049 -5.771,1.729 -10.383,1.498 -1.472,-0.074 -2.042,0.128 -1.672,0.547 0.409,0.463 6.432,0.473 9.242,-0.079 2.809,-0.553 7.178,-1.727 10.233,-5.872 2.037,-2.764 4.46,-6.918 6.784,-7.875 1.191,-0.49 2.248,-0.41 3.17,-0.258 l -0.078,0.005 c 0,0 -3.283,0.758 -5.051,3.22 -0.963,1.341 -3.193,5.988 -6.684,8.697 -3.167,2.458 -9.365,5.407 -10.997,6.079 -0.92,0.379 -2.084,0.632 -2.084,1.073 0,1.2 9.497,-2.917 13.479,-5.813 3.102,-2.255 6.062,-6.441 7.262,-8.398 0.893,-1.457 2.798,-2.631 4.593,-3.305 -0.41,0.562 -5.994,7.881 -9.232,10.76 -10.104,8.979 -18.248,13.008 -17.869,13.514 0.378,0.505 8.819,-4.135 12.182,-6.867 6.667,-5.417 16.149,-15.193 17.208,-16.292 -0.655,0.981 -2.725,4.07 -5.125,6.5 -2.391,2.421 -12.785,12.007 -14.375,14.292 -1.589,2.287 -2.75,4.666 -2.171,5.088 0.36,0.263 1.105,-1.347 1.63,-2.38 1.292,-2.542 6.398,-7.142 9,-9.458 2.601,-2.318 9.596,-8.24 11.24,-10.273 0.47,-0.58 0.937,-1.232 1.338,-1.888 -0.095,1.142 -0.413,2.696 -1.375,3.818 -1.152,1.343 -7.262,5.879 -9.662,8.468 -2.398,2.589 -2.627,6.347 -2.5,7.041 0.126,0.693 0.622,0.671 0.75,-0.333 0.135,-1.062 0.448,-2.281 0.792,-3.156 0.672,-1.711 1.646,-2.995 3.667,-4.511 1.232,-0.924 3.788,-3.11 6.012,-4.478 -0.158,0.494 -0.549,1.374 -1.023,1.958 -0.858,1.057 -4.089,3.073 -5.517,6.181 -1.21,2.632 -2.046,5.78 -3.697,7.057 -1.984,1.533 -3.356,-0.442 -3.696,-0.168 -0.34,0.274 0.224,1.398 2.379,1.556 2.562,0.188 4.565,-4.349 5.351,-6.008 2.274,-4.805 3.587,-5.148 5.243,-6.586 0.57,-0.494 1.089,-1.126 1.469,-1.844 0.017,2.007 0.246,4.133 -0.188,5.084 -0.619,1.36 -3.467,2.218 -4.458,4.499 -1.186,2.729 -1.662,5.807 -1.792,6.417 -0.131,0.609 0.382,0.724 0.603,0.078 0.22,-0.646 1.731,-6.011 3.045,-7.241 1.314,-1.23 3.318,-1.725 3.999,-3.82 0.681,-2.095 -0.725,-5.946 0.979,-7.829 1.753,-1.938 3.031,-4.531 2.373,-6.994 0.166,-0.607 0.312,-1.271 0.566,-1.591 0.517,-0.646 0.388,-0.128 1.293,-0.128 0.905,0 0.775,-0.518 0.711,-1.1 -0.064,-0.581 0.452,-0.97 2.587,-0.581 2.133,0.388 4.655,-1.035 6.013,-3.039 1.356,-2.007 1.808,-6.209 0.32,-7.115 z"
       id="path20"
       inkscape:connector-curvature="0"
       style="fill:#000000" /></g></svg>